<svg width="1200" height="520" viewBox="0 0 1200 520" fill="none" xmlns="http://www.w3.org/2000/svg" role="img" aria-labelledby="title desc">
  <title id="title">Zeus AI project banner</title>
  <desc id="desc">A stylized checkers board with minimax and alpha-beta pruning labels for Zeus AI.</desc>
  <defs>
    <linearGradient id="bg" x1="0" y1="0" x2="1200" y2="520" gradientUnits="userSpaceOnUse">
      <stop stop-color="#09111F"/>
      <stop offset="0.52" stop-color="#14213D"/>
      <stop offset="1" stop-color="#251A35"/>
    </linearGradient>
    <linearGradient id="bolt" x1="776" y1="64" x2="1000" y2="388" gradientUnits="userSpaceOnUse">
      <stop stop-color="#FACC15"/>
      <stop offset="0.5" stop-color="#38BDF8"/>
      <stop offset="1" stop-color="#A78BFA"/>
    </linearGradient>
    <filter id="shadow" x="-20%" y="-20%" width="140%" height="140%">
      <feDropShadow dx="0" dy="18" stdDeviation="18" flood-color="#000000" flood-opacity="0.35"/>
    </filter>
  </defs>

  <rect width="1200" height="520" rx="28" fill="url(#bg)"/>
  <path d="M905 48L780 262H895L818 472L1032 207H914L1005 48H905Z" fill="url(#bolt)" opacity="0.92"/>
  <path d="M58 402C217 266 376 234 542 274C705 314 819 255 1021 92" stroke="#38BDF8" stroke-width="4" stroke-linecap="round" opacity="0.45"/>

  <g filter="url(#shadow)">
    <rect x="80" y="80" width="420" height="340" rx="22" fill="#0F172A" stroke="#334155"/>
    <text x="110" y="153" fill="#F8FAFC" font-family="Arial, Helvetica, sans-serif" font-size="66" font-weight="800">Zeus AI</text>
    <text x="114" y="197" fill="#CBD5E1" font-family="Arial, Helvetica, sans-serif" font-size="24">Python checkers engine</text>
    <text x="114" y="232" fill="#94A3B8" font-family="Arial, Helvetica, sans-serif" font-size="18">Minimax search + alpha-beta pruning</text>
    <rect x="114" y="288" width="160" height="48" rx="24" fill="#38BDF8"/>
    <text x="144" y="319" fill="#07111F" font-family="Arial, Helvetica, sans-serif" font-size="19" font-weight="800">depth = 4</text>
    <rect x="288" y="288" width="156" height="48" rx="24" fill="#FACC15"/>
    <text x="320" y="319" fill="#332600" font-family="Arial, Helvetica, sans-serif" font-size="19" font-weight="800">heuristic</text>
    <rect x="114" y="354" width="330" height="20" rx="10" fill="#1E293B"/>
    <rect x="114" y="354" width="236" height="20" rx="10" fill="#A78BFA"/>
  </g>

  <g filter="url(#shadow)">
    <rect x="560" y="86" width="290" height="290" rx="18" fill="#0B1220" stroke="#475569"/>
    <g>
      <rect x="590" y="116" width="46" height="46" fill="#E5E7EB"/>
      <rect x="636" y="116" width="46" height="46" fill="#1F2937"/>
      <rect x="682" y="116" width="46" height="46" fill="#E5E7EB"/>
      <rect x="728" y="116" width="46" height="46" fill="#1F2937"/>
      <rect x="774" y="116" width="46" height="46" fill="#E5E7EB"/>
      <rect x="590" y="162" width="46" height="46" fill="#1F2937"/>
      <rect x="636" y="162" width="46" height="46" fill="#E5E7EB"/>
      <rect x="682" y="162" width="46" height="46" fill="#1F2937"/>
      <rect x="728" y="162" width="46" height="46" fill="#E5E7EB"/>
      <rect x="774" y="162" width="46" height="46" fill="#1F2937"/>
      <rect x="590" y="208" width="46" height="46" fill="#E5E7EB"/>
      <rect x="636" y="208" width="46" height="46" fill="#1F2937"/>
      <rect x="682" y="208" width="46" height="46" fill="#E5E7EB"/>
      <rect x="728" y="208" width="46" height="46" fill="#1F2937"/>
      <rect x="774" y="208" width="46" height="46" fill="#E5E7EB"/>
      <rect x="590" y="254" width="46" height="46" fill="#1F2937"/>
      <rect x="636" y="254" width="46" height="46" fill="#E5E7EB"/>
      <rect x="682" y="254" width="46" height="46" fill="#1F2937"/>
      <rect x="728" y="254" width="46" height="46" fill="#E5E7EB"/>
      <rect x="774" y="254" width="46" height="46" fill="#1F2937"/>
      <rect x="590" y="300" width="46" height="46" fill="#E5E7EB"/>
      <rect x="636" y="300" width="46" height="46" fill="#1F2937"/>
      <rect x="682" y="300" width="46" height="46" fill="#E5E7EB"/>
      <rect x="728" y="300" width="46" height="46" fill="#1F2937"/>
      <rect x="774" y="300" width="46" height="46" fill="#E5E7EB"/>
    </g>
    <circle cx="659" cy="185" r="17" fill="#DC2626" stroke="#FCA5A5" stroke-width="4"/>
    <circle cx="750" cy="231" r="17" fill="#111827" stroke="#94A3B8" stroke-width="4"/>
    <circle cx="659" cy="277" r="17" fill="#111827" stroke="#94A3B8" stroke-width="4"/>
    <circle cx="797" cy="323" r="17" fill="#DC2626" stroke="#FCA5A5" stroke-width="4"/>
  </g>

  <g filter="url(#shadow)" font-family="Arial, Helvetica, sans-serif">
    <rect x="902" y="104" width="216" height="84" rx="18" fill="#111827" stroke="#38BDF8"/>
    <text x="930" y="140" fill="#F8FAFC" font-size="20" font-weight="800">Generate moves</text>
    <text x="930" y="166" fill="#94A3B8" font-size="15">jumps, kings, spaces</text>
    <rect x="902" y="218" width="216" height="84" rx="18" fill="#111827" stroke="#FACC15"/>
    <text x="930" y="254" fill="#F8FAFC" font-size="20" font-weight="800">Score boards</text>
    <text x="930" y="280" fill="#94A3B8" font-size="15">material + position</text>
    <rect x="902" y="332" width="216" height="84" rx="18" fill="#111827" stroke="#A78BFA"/>
    <text x="930" y="368" fill="#F8FAFC" font-size="20" font-weight="800">Prune branches</text>
    <text x="930" y="394" fill="#94A3B8" font-size="15">alpha-beta search</text>
  </g>

  <text x="78" y="470" fill="#94A3B8" font-family="Arial, Helvetica, sans-serif" font-size="18">Built by Rehan Jetha</text>
  <text x="972" y="470" fill="#94A3B8" font-family="Arial, Helvetica, sans-serif" font-size="18">Python standard library</text>
</svg>
